<svg width="111" height="111" viewBox="0 0 111 111" fill="none" xmlns="http://www.w3.org/2000/svg">
<path d="M108 55.5C108 84.495 84.495 108 55.5 108C26.505 108 3 84.495 3 55.5C3 26.505 26.505 3 55.5 3C84.495 3 108 26.505 108 55.5Z" fill="#494949" stroke="#494949" stroke-width="6"/>
<path d="M54.724 37.196C54.548 37.724 54.372 38.516 54.24 39.132C53.492 42.828 52.744 49.78 52.744 55.808C52.744 61.528 53.976 66.808 55.34 70.944L52.128 71.912C50.852 67.996 49.664 61.748 49.664 56.16C49.664 50.132 50.544 43.004 50.94 39.22C51.028 38.428 51.072 37.636 51.072 37.064L54.724 37.196ZM47.64 42.608C55.384 42.608 63.04 41.992 69.112 40.628L69.156 43.884C62.82 44.984 54.152 45.644 47.596 45.644C45.704 45.644 42.272 45.468 40.468 45.38L40.38 42.08C41.92 42.344 45.748 42.608 47.64 42.608ZM65.988 47.8C65.724 48.372 65.328 49.56 65.064 50.264C62.468 58.404 58.068 64.52 53.448 68.084C50.632 70.24 47.112 71.868 43.988 71.868C41.084 71.868 38.796 70.108 38.796 66.368C38.796 60.34 44.384 54.136 50.896 51.628C53.844 50.484 57.408 49.824 60.268 49.824C68.584 49.824 73.82 54.664 73.82 60.824C73.82 67.116 69.64 72.616 59.432 74.244L57.54 71.296C65.46 70.416 70.388 66.324 70.388 60.648C70.388 56.38 66.78 52.64 60.224 52.64C56.528 52.64 53.272 53.696 51.028 54.708C46.056 56.908 42.096 61.748 42.096 65.796C42.096 67.6 42.976 68.48 44.604 68.48C46.804 68.48 49.664 67.248 52.48 64.784C56.396 61.352 60.004 56.6 62.028 49.472C62.204 48.812 62.424 47.624 62.468 46.92L65.988 47.8Z" fill="white"/>
</svg>
