<svg width="403" height="403" viewBox="0 0 403 403" fill="none" xmlns="http://www.w3.org/2000/svg">
<path d="M403 201.5C403 312.785 312.785 403 201.5 403C90.2146 403 0 312.785 0 201.5C0 90.2146 90.2146 0 201.5 0C312.785 0 403 90.2146 403 201.5Z" fill="#E85D56"/>
<path d="M170.617 54.779H232.739V131.853H221.258V65.548H181.653V131.942H170.617V54.779ZM178.182 84.683H226.064V95.274H178.182V84.683ZM178.093 115.388H226.064V126.157H178.093V115.388ZM162.162 174.705H240.927V185.563H162.162V174.705ZM180.496 215.111H221.792V225.969H180.496V215.111ZM195.715 157.439H207.107V241.01H195.715V157.439ZM192.511 178.621L202.301 181.736C194.647 201.138 182.009 218.137 166.434 227.927C164.654 225.257 161.094 221.163 158.691 219.027C173.287 211.017 186.192 194.997 192.511 178.621ZM210.311 178.888C216.808 194.73 229.802 210.216 244.754 217.959C242.084 220.184 238.257 224.634 236.477 227.66C220.813 218.048 208.353 201.049 200.61 182.092L210.311 178.888ZM198.83 315.546H237.901V348.654H227.488V325.069H208.798V349.01H198.83V315.546ZM197.05 283.417H235.943V306.557H225.708V292.495H197.05V283.417ZM207.908 271.758L218.321 272.559C216.808 283.773 214.405 298.013 212.625 306.557H202.212C204.259 297.568 206.573 282.972 207.908 271.758ZM195.626 268.02H240.482V277.098H195.626V268.02ZM192.333 301.484H243.597V310.829H192.333V301.484ZM202.835 336.105H233.54V345.628H202.835V336.105ZM163.942 293.385H189.663V301.395H163.942V293.385ZM164.476 268.198H189.752V276.297H164.476V268.198ZM163.942 305.845H189.663V313.855H163.942V305.845ZM159.581 280.569H192.867V288.935H159.581V280.569ZM168.837 318.394H190.286V345.45H168.837V337.084H181.119V326.849H168.837V318.394ZM163.675 318.394H172.664V349.01H163.675V318.394Z" fill="white"/>
</svg>
