<svg width="512" height="512" viewBox="0 0 512 512" fill="none" xmlns="http://www.w3.org/2000/svg">
<path d="M256 170C302.944 170 341 131.944 341 85C341 38.0558 302.944 0 256 0C209.056 0 171 38.0558 171 85C171 131.944 209.056 170 256 170Z" fill="#E85D56"/>
<path d="M318.459 181.515C300.462 193.202 279.011 200 256 200C232.989 200 211.538 193.202 193.541 181.515C173.533 189.162 155.1 200.421 139.161 214.731L256 258.546L372.839 214.731C356.9 200.421 338.468 189.162 318.459 181.515ZM436 310H426C417.716 310 411 316.716 411 325V365C411 373.284 417.716 380 426 380H436C455.33 380 471 364.33 471 345C471 325.67 455.33 310 436 310ZM87.456 234.276C85.4639 235.657 83.836 237.499 82.7116 239.647C81.5873 241.794 81 244.181 81 246.605V280H86C110.813 280 131 300.187 131 325V365C131 389.813 110.813 410 86 410H81V441.605C81 444.659 81.9318 447.639 83.671 450.149C85.4102 452.659 87.874 454.578 90.733 455.65L241 512V284.96L101.267 232.56C98.9977 231.708 96.5557 231.419 94.1503 231.718C91.7449 232.017 89.4478 232.895 87.456 234.276Z" fill="#E85D56"/>
<path d="M381 365V325C381 300.187 401.187 280 426 280H431V246.605C431 244.181 430.413 241.794 429.288 239.647C428.164 237.499 426.536 235.657 424.544 234.276C422.552 232.896 420.255 232.018 417.85 231.719C415.444 231.421 413.002 231.709 410.733 232.56L271 284.96V512L421.267 455.65C424.126 454.578 426.59 452.659 428.329 450.149C430.068 447.639 431 444.659 431 441.605V410H426C401.187 410 381 389.813 381 365ZM101 365V325C101 316.716 94.284 310 86 310H76C56.67 310 41 325.67 41 345C41 364.33 56.67 380 76 380H86C94.284 380 101 373.284 101 365Z" fill="#E85D56"/>
</svg>
