<svg width="96" height="72" viewBox="0 0 96 72" fill="none" xmlns="http://www.w3.org/2000/svg">
<circle cx="48" cy="30" r="30" fill="#E85D56"/>
<path d="M24.336 22.272C24.24 23.376 24.144 25.008 24.096 26.16C23.472 45.744 18.192 54.72 8.736 61.296L5.232 58.464C6.768 57.648 8.688 56.304 10.128 54.96C16.128 49.536 20.064 41.424 20.16 26.256C20.16 25.152 20.064 23.376 19.872 22.272H24.336ZM41.04 32.256C40.896 33.072 40.8 33.936 40.752 34.56C40.608 39.216 39.984 53.136 37.824 57.744C36.864 59.808 35.328 60.672 32.688 60.672C30.288 60.672 27.504 60.528 25.008 60.336L24.528 56.352C27.12 56.688 29.616 56.928 31.68 56.928C33.024 56.928 33.936 56.496 34.464 55.344C36.288 51.648 36.912 39.84 36.912 34.704H11.616C9.696 34.704 7.776 34.752 6.048 34.896V30.864C7.728 31.008 9.696 31.104 11.568 31.104H35.28C36.576 31.104 37.488 31.008 38.304 30.864L41.04 32.256ZM52.608 29.76C54.384 29.952 56.448 30.048 58.512 30.048C63.696 30.048 69.744 29.424 75.264 27.6L75.36 31.152C70.656 32.448 64.368 33.504 58.512 33.456C56.736 33.456 54.672 33.408 52.896 33.36L52.608 29.76ZM69.648 21.936C69.024 24.288 68.016 28.8 66.864 32.208C64.56 39.12 60.144 47.856 56.16 53.232L52.464 51.312C56.736 46.32 61.2 37.776 63.168 32.112C64.224 29.088 65.28 24.864 65.424 21.504L69.648 21.936ZM80.976 36.768C80.832 38.736 80.832 40.176 80.88 41.904C80.976 45.024 81.408 52.32 81.408 55.488C81.408 59.328 78.96 62.448 73.008 62.448C67.728 62.448 63.456 60.336 63.456 55.536C63.456 51.12 67.632 48.336 73.008 48.336C81.072 48.336 87.264 52.368 91.2 55.776L89.184 59.04C85.488 55.68 79.968 51.408 72.912 51.408C69.36 51.408 66.96 53.04 66.96 55.248C66.96 57.456 68.832 58.992 72.576 58.992C76.56 58.992 77.904 56.88 77.904 54.288C77.904 50.64 77.376 42.048 77.184 36.768H80.976ZM90.576 38.016C87.984 35.808 82.752 32.88 79.584 31.392L81.504 28.512C85.008 30 90.432 33.12 92.736 34.848L90.576 38.016Z" fill="white"/>
</svg>
