<svg width="512" height="512" viewBox="0 0 512 512" fill="none" xmlns="http://www.w3.org/2000/svg">
<path d="M256 292.1C289 292.1 319.5 282.8 343.9 267C362.8 254.9 387.4 256.9 404 272C450.1 313.8 476.3 373.1 476.2 435.4V462.1C476.2 489.7 453.8 512 426.2 512H85.8C58.2 512 35.8 489.7 35.8 462.1V435.4C35.6 373.2 61.8 313.8 107.9 272.1C124.5 257 149.2 255 168 267.1C192.5 282.8 222.9 292.1 256 292.1Z" fill="#E85D56"/>
<path d="M256 247.6C324.373 247.6 379.8 192.173 379.8 123.8C379.8 55.4272 324.373 0 256 0C187.627 0 132.2 55.4272 132.2 123.8C132.2 192.173 187.627 247.6 256 247.6Z" fill="#E85D56"/>
</svg>
