<svg width="512" height="512" viewBox="0 0 512 512" fill="none" xmlns="http://www.w3.org/2000/svg">
<g clip-path="url(#clip0_415_533)">
<path d="M78.3206 60.4212H78.2776C75.8928 60.4161 73.5306 60.8834 71.3274 61.7962C69.1242 62.709 67.1237 64.0492 65.4413 65.7395C63.7261 67.4418 62.3661 69.4679 61.4404 71.7002C60.5147 73.9324 60.0417 76.3263 60.0489 78.7429V353.474C60.0489 363.549 68.2771 371.765 78.393 371.791C121.039 371.892 192.488 380.781 241.778 432.362V144.848C241.778 141.433 240.906 138.225 239.26 135.57C198.805 70.4199 121.063 60.5212 78.3206 60.4212ZM451.953 353.474V78.7412C451.953 73.8246 450.037 69.2062 446.56 65.7377C444.878 64.0479 442.878 62.708 440.675 61.7952C438.472 60.8824 436.11 60.4148 433.726 60.4195H433.681C390.94 60.5212 313.198 70.4199 272.742 135.57C271.095 138.225 270.225 141.433 270.225 144.848V432.36C319.515 380.779 390.964 371.891 433.61 371.789C443.724 371.763 451.953 363.547 451.953 353.474Z" fill="#E85D56"/>
<path d="M493.682 123.778H480.397V353.474C480.397 379.197 459.44 400.171 433.678 400.235C397.505 400.321 337.861 407.395 295.62 447.374C368.676 429.486 445.69 441.114 489.581 451.116C492.269 451.737 495.063 451.74 497.754 451.127C500.444 450.514 502.96 449.3 505.115 447.575C507.268 445.865 509.006 443.689 510.199 441.21C511.391 438.732 512.007 436.016 512 433.265V142.097C512.002 131.996 503.782 123.778 493.682 123.778ZM31.6027 353.474V123.778H18.3183C8.21961 123.778 0 131.996 0 142.097V433.26C0 438.863 2.51002 444.079 6.8853 447.57C9.03909 449.295 11.5556 450.51 14.2461 451.123C16.9365 451.737 19.7309 451.732 22.4195 451.111C66.3103 441.107 143.326 429.481 216.378 447.369C174.139 407.391 114.495 400.32 78.3225 400.233C52.5621 400.171 31.6027 379.197 31.6027 353.474Z" fill="#E85D56"/>
</g>
<defs>
<clipPath id="clip0_415_533">
<rect width="512" height="512" fill="white"/>
</clipPath>
</defs>
</svg>
